<svg xmlns="http://www.w3.org/2000/svg" width="1440" height="900"><path d="M728,488L690,487L736,564Z" fill="#909490" stroke="#909490" stroke-width="1.51"/><path d="M690,487L699,589L736,564Z" fill="#9a9d9a" stroke="#9a9d9a" stroke-width="1.51"/><path d="M736,564L828,534L728,488Z" fill="#9a9d9a" stroke="#9a9d9a" stroke-width="1.51"/><path d="M874,641L828,534L736,564Z" fill="#aeb1ae" stroke="#aeb1ae" stroke-width="1.51"/><path d="M690,487L566,521L699,589Z" fill="#a0a39d" stroke="#a0a39d" stroke-width="1.51"/><path d="M655,358L611,428L690,487Z" fill="#93968f" stroke="#93968f" stroke-width="1.51"/><path d="M655,358L690,487L728,488Z" fill="#878b86" stroke="#878b86" stroke-width="1.51"/><path d="M611,428L566,521L690,487Z" fill="#989b95" stroke="#989b95" stroke-width="1.51"/><path d="M828,534L811,414L728,488Z" fill="#929592" stroke="#929592" stroke-width="1.51"/><path d="M566,521L567,618L699,589Z" fill="#b2b4ae" stroke="#b2b4ae" stroke-width="1.51"/><path d="M567,618L636,690L699,589Z" fill="#bcbeb9" stroke="#bcbeb9" stroke-width="1.51"/><path d="M800,710L874,641L736,564Z" fill="#bbbdbb" stroke="#bbbdbb" stroke-width="1.51"/><path d="M811,414L655,358L728,488Z" fill="#8a8e89" stroke="#8a8e89" stroke-width="1.51"/><path d="M828,534L880,439L811,414Z" fill="#969996" stroke="#969996" stroke-width="1.51"/><path d="M800,710L736,564L699,589Z" fill="#aeb0ae" stroke="#aeb0ae" stroke-width="1.51"/><path d="M828,534L997,461L880,439Z" fill="#a3a6a3" stroke="#a3a6a3" stroke-width="1.51"/><path d="M636,690L800,710L699,589Z" fill="#b6b8b6" stroke="#b6b8b6" stroke-width="1.51"/><path d="M508,393L472,536L566,521Z" fill="#acaea5" stroke="#acaea5" stroke-width="1.51"/><path d="M655,358L632,331L611,428Z" fill="#a4a79e" stroke="#a4a79e" stroke-width="1.51"/><path d="M749,260L632,331L655,358Z" fill="#acafa4" stroke="#acafa4" stroke-width="1.51"/><path d="M749,260L655,358L811,414Z" fill="#a0a39a" stroke="#a0a39a" stroke-width="1.51"/><path d="M567,618L533,670L636,690Z" fill="#cdcec8" stroke="#cdcec8" stroke-width="1.51"/><path d="M452,616L533,670L567,618Z" fill="#d1d2ca" stroke="#d1d2ca" stroke-width="1.51"/><path d="M566,521L472,536L567,618Z" fill="#bbbdb5" stroke="#bbbdb5" stroke-width="1.51"/><path d="M508,393L566,521L611,428Z" fill="#9c9f97" stroke="#9c9f97" stroke-width="1.51"/><path d="M568,318L508,393L611,428Z" fill="#aeb1a5" stroke="#aeb1a5" stroke-width="1.51"/><path d="M632,331L568,318L611,428Z" fill="#adb0a4" stroke="#adb0a4" stroke-width="1.51"/><path d="M874,641L997,461L828,534Z" fill="#b3b5b3" stroke="#b3b5b3" stroke-width="1.51"/><path d="M800,710L907,697L874,641Z" fill="#cbceca" stroke="#cbceca" stroke-width="1.51"/><path d="M472,536L452,616L567,618Z" fill="#c9cbc2" stroke="#c9cbc2" stroke-width="1.51"/><path d="M906,319L749,260L811,414Z" fill="#b0b3aa" stroke="#b0b3aa" stroke-width="1.51"/><path d="M632,331L645,203L568,318Z" fill="#c0c2b4" stroke="#c0c2b4" stroke-width="1.51"/><path d="M907,697L941,676L874,641Z" fill="#d4d5d4" stroke="#d4d5d4" stroke-width="1.51"/><path d="M880,439L906,319L811,414Z" fill="#a7a9a4" stroke="#a7a9a4" stroke-width="1.51"/><path d="M974,357L906,319L880,439Z" fill="#b4b7b0" stroke="#b4b7b0" stroke-width="1.51"/><path d="M1047,537L997,461L874,641Z" fill="#bec1be" stroke="#bec1be" stroke-width="1.51"/><path d="M452,616L487,731L533,670Z" fill="#e0e0d8" stroke="#e0e0d8" stroke-width="1.51"/><path d="M533,670L541,818L636,690Z" fill="#becbb6" stroke="#becbb6" stroke-width="1.51"/><path d="M653,840L799,827L800,710Z" fill="#8eac89" stroke="#8eac89" stroke-width="1.51"/><path d="M472,536L405,581L452,616Z" fill="#d0d1c7" stroke="#d0d1c7" stroke-width="1.51"/><path d="M332,707L432,802L487,731Z" fill="#d1e2c2" stroke="#d1e2c2" stroke-width="1.51"/><path d="M372,476L405,581L472,536Z" fill="#c9cbbf" stroke="#c9cbbf" stroke-width="1.51"/><path d="M653,840L800,710L636,690Z" fill="#a0b29b" stroke="#a0b29b" stroke-width="1.51"/><path d="M800,710L890,825L907,697Z" fill="#b3c4af" stroke="#b3c4af" stroke-width="1.51"/><path d="M907,697L1010,807L941,676Z" fill="#c8d5c5" stroke="#c8d5c5" stroke-width="1.51"/><path d="M541,818L653,840L636,690Z" fill="#a1bb97" stroke="#a1bb97" stroke-width="1.51"/><path d="M997,461L974,357L880,439Z" fill="#acafaa" stroke="#acafaa" stroke-width="1.51"/><path d="M941,676L1011,638L874,641Z" fill="#d5d5d5" stroke="#d5d5d5" stroke-width="1.51"/><path d="M1089,689L1011,638L941,676Z" fill="#e4e4e4" stroke="#e4e4e4" stroke-width="1.51"/><path d="M749,260L645,203L632,331Z" fill="#bbbdaf" stroke="#bbbdaf" stroke-width="1.51"/><path d="M906,319L806,218L749,260Z" fill="#c2c4b9" stroke="#c2c4b9" stroke-width="1.51"/><path d="M838,165L806,218L906,319Z" fill="#d0d2c5" stroke="#d0d2c5" stroke-width="1.51"/><path d="M974,357L970,332L906,319Z" fill="#c3c5bd" stroke="#c3c5bd" stroke-width="1.51"/><path d="M1103,306L970,332L974,357Z" fill="#ced0c8" stroke="#ced0c8" stroke-width="1.51"/><path d="M760,93L645,203L749,260Z" fill="#b1bca4" stroke="#b1bca4" stroke-width="1.51"/><path d="M486,258L403,387L508,393Z" fill="#c8cbba" stroke="#c8cbba" stroke-width="1.51"/><path d="M487,731L541,818L533,670Z" fill="#c1d2b7" stroke="#c1d2b7" stroke-width="1.51"/><path d="M508,393L372,476L472,536Z" fill="#b3b5aa" stroke="#b3b5aa" stroke-width="1.51"/><path d="M486,258L508,393L568,318Z" fill="#c5c7b8" stroke="#c5c7b8" stroke-width="1.51"/><path d="M1011,638L1047,537L874,641Z" fill="#cecfce" stroke="#cecfce" stroke-width="1.51"/><path d="M997,461L1104,427L974,357Z" fill="#b9bbb7" stroke="#b9bbb7" stroke-width="1.51"/><path d="M403,387L372,476L508,393Z" fill="#bbbdaf" stroke="#bbbdaf" stroke-width="1.51"/><path d="M685,993L708,869L653,840Z" fill="#649b5a" stroke="#649b5a" stroke-width="1.51"/><path d="M653,840L708,869L799,827Z" fill="#759e6d" stroke="#759e6d" stroke-width="1.51"/><path d="M882,879L890,825L799,827Z" fill="#8ab382" stroke="#8ab382" stroke-width="1.51"/><path d="M799,827L890,825L800,710Z" fill="#9cb896" stroke="#9cb896" stroke-width="1.51"/><path d="M485,234L486,258L568,318Z" fill="#d6d7c5" stroke="#d6d7c5" stroke-width="1.51"/><path d="M541,818L577,862L653,840Z" fill="#8cb580" stroke="#8cb580" stroke-width="1.51"/><path d="M486,258L410,265L403,387Z" fill="#dadcc9" stroke="#dadcc9" stroke-width="1.51"/><path d="M584,170L485,234L568,318Z" fill="#d9dac8" stroke="#d9dac8" stroke-width="1.51"/><path d="M650,60L584,170L645,203Z" fill="#b1c6a2" stroke="#b1c6a2" stroke-width="1.51"/><path d="M645,203L584,170L568,318Z" fill="#d2d3c2" stroke="#d2d3c2" stroke-width="1.51"/><path d="M1047,537L1104,427L997,461Z" fill="#b9bbb9" stroke="#b9bbb9" stroke-width="1.51"/><path d="M1011,638L1079,613L1047,537Z" fill="#d7d8d7" stroke="#d7d8d7" stroke-width="1.51"/><path d="M1089,689L1079,613L1011,638Z" fill="#e6e7e6" stroke="#e6e7e6" stroke-width="1.51"/><path d="M968,187L838,165L906,319Z" fill="#dbdccf" stroke="#dbdccf" stroke-width="1.51"/><path d="M806,218L760,93L749,260Z" fill="#b9c4ae" stroke="#b9c4ae" stroke-width="1.51"/><path d="M487,731L432,802L541,818Z" fill="#b5d0a7" stroke="#b5d0a7" stroke-width="1.51"/><path d="M541,818L450,925L577,862Z" fill="#8cbc7d" stroke="#8cbc7d" stroke-width="1.51"/><path d="M332,707L487,731L452,616Z" fill="#e9ebdd" stroke="#e9ebdd" stroke-width="1.51"/><path d="M332,707L452,616L405,581Z" fill="#e7e7dc" stroke="#e7e7dc" stroke-width="1.51"/><path d="M890,825L1010,807L907,697Z" fill="#b2caac" stroke="#b2caac" stroke-width="1.51"/><path d="M781,926L882,879L799,827Z" fill="#76a86e" stroke="#76a86e" stroke-width="1.51"/><path d="M781,926L799,827L708,869Z" fill="#70a067" stroke="#70a067" stroke-width="1.51"/><path d="M287,528L294,563L372,476Z" fill="#c7cebb" stroke="#c7cebb" stroke-width="1.51"/><path d="M485,234L410,265L486,258Z" fill="#e4e5d1" stroke="#e4e5d1" stroke-width="1.51"/><path d="M431,130L410,265L485,234Z" fill="#eaeed4" stroke="#eaeed4" stroke-width="1.51"/><path d="M685,993L781,926L708,869Z" fill="#5e9656" stroke="#5e9656" stroke-width="1.51"/><path d="M1155,486L1104,427L1047,537Z" fill="#bbc0ba" stroke="#bbc0ba" stroke-width="1.51"/><path d="M970,332L968,187L906,319Z" fill="#d3d4ca" stroke="#d3d4ca" stroke-width="1.51"/><path d="M975,913L1010,807L890,825Z" fill="#98c28f" stroke="#98c28f" stroke-width="1.51"/><path d="M1010,807L1089,689L941,676Z" fill="#d2dfd0" stroke="#d2dfd0" stroke-width="1.51"/><path d="M1079,613L1155,486L1047,537Z" fill="#cccfcc" stroke="#cccfcc" stroke-width="1.51"/><path d="M372,476L294,563L405,581Z" fill="#d4d6c8" stroke="#d4d6c8" stroke-width="1.51"/><path d="M287,528L372,476L238,392Z" fill="#b4bfa8" stroke="#b4bfa8" stroke-width="1.51"/><path d="M294,563L332,707L405,581Z" fill="#e5e8d9" stroke="#e5e8d9" stroke-width="1.51"/><path d="M238,392L372,476L403,387Z" fill="#c2c7b4" stroke="#c2c7b4" stroke-width="1.51"/><path d="M1042,173L968,187L970,332Z" fill="#e8e9dc" stroke="#e8e9dc" stroke-width="1.51"/><path d="M1089,689L1129,629L1079,613Z" fill="#e4e7e4" stroke="#e4e7e4" stroke-width="1.51"/><path d="M837,68L760,93L838,165Z" fill="#a2bf96" stroke="#a2bf96" stroke-width="1.51"/><path d="M838,165L760,93L806,218Z" fill="#b3c4a7" stroke="#b3c4a7" stroke-width="1.51"/><path d="M332,707L350,796L432,802Z" fill="#d0e7bf" stroke="#d0e7bf" stroke-width="1.51"/><path d="M555,1009L685,993L577,862Z" fill="#70a864" stroke="#70a864" stroke-width="1.51"/><path d="M577,862L685,993L653,840Z" fill="#6ca361" stroke="#6ca361" stroke-width="1.51"/><path d="M279,782L350,796L332,707Z" fill="#cbe6ba" stroke="#cbe6ba" stroke-width="1.51"/><path d="M1089,689L1132,675L1129,629Z" fill="#e5ebe3" stroke="#e5ebe3" stroke-width="1.51"/><path d="M1179,834L1132,675L1089,689Z" fill="#cce2c7" stroke="#cce2c7" stroke-width="1.51"/><path d="M1104,427L1103,306L974,357Z" fill="#cdcec8" stroke="#cdcec8" stroke-width="1.51"/><path d="M1129,629L1155,486L1079,613Z" fill="#cdd4cb" stroke="#cdd4cb" stroke-width="1.51"/><path d="M1248,574L1155,486L1129,629Z" fill="#bccbb9" stroke="#bccbb9" stroke-width="1.51"/><path d="M975,913L890,825L882,879Z" fill="#87b77e" stroke="#87b77e" stroke-width="1.51"/><path d="M1093,903L1064,807L1010,807Z" fill="#aad2a2" stroke="#aad2a2" stroke-width="1.51"/><path d="M1010,807L1064,807L1089,689Z" fill="#c8dec2" stroke="#c8dec2" stroke-width="1.51"/><path d="M1167,423L1103,306L1104,427Z" fill="#bfc7ba" stroke="#bfc7ba" stroke-width="1.51"/><path d="M450,925L541,818L432,802Z" fill="#9cc78c" stroke="#9cc78c" stroke-width="1.51"/><path d="M883,985L975,913L882,879Z" fill="#7bb272" stroke="#7bb272" stroke-width="1.51"/><path d="M883,985L882,879L781,926Z" fill="#71a868" stroke="#71a868" stroke-width="1.51"/><path d="M168,686L264,678L144,615Z" fill="#cce7c0" stroke="#cce7c0" stroke-width="1.51"/><path d="M294,563L264,678L332,707Z" fill="#e3edd6" stroke="#e3edd6" stroke-width="1.51"/><path d="M1155,486L1167,423L1104,427Z" fill="#aab4a7" stroke="#aab4a7" stroke-width="1.51"/><path d="M1264,480L1167,423L1155,486Z" fill="#9fb19b" stroke="#9fb19b" stroke-width="1.51"/><path d="M760,93L650,60L645,203Z" fill="#9eb991" stroke="#9eb991" stroke-width="1.51"/><path d="M584,170L431,130L485,234Z" fill="#d4e0c0" stroke="#d4e0c0" stroke-width="1.51"/><path d="M337,863L450,925L432,802Z" fill="#a2d18e" stroke="#a2d18e" stroke-width="1.51"/><path d="M760,93L682,-20L650,60Z" fill="#7fad75" stroke="#7fad75" stroke-width="1.51"/><path d="M935,82L837,68L838,165Z" fill="#a9c89e" stroke="#a9c89e" stroke-width="1.51"/><path d="M935,82L838,165L968,187Z" fill="#bfd4b3" stroke="#bfd4b3" stroke-width="1.51"/><path d="M539,59L431,130L584,170Z" fill="#bbd6a8" stroke="#bbd6a8" stroke-width="1.51"/><path d="M227,268L238,392L403,387Z" fill="#cbd7b9" stroke="#cbd7b9" stroke-width="1.51"/><path d="M1103,306L1042,173L970,332Z" fill="#e4e4da" stroke="#e4e4da" stroke-width="1.51"/><path d="M1179,259L1042,173L1103,306Z" fill="#ebefdf" stroke="#ebefdf" stroke-width="1.51"/><path d="M806,1039L883,985L781,926Z" fill="#6da565" stroke="#6da565" stroke-width="1.51"/><path d="M287,528L144,615L294,563Z" fill="#c1d4b4" stroke="#c1d4b4" stroke-width="1.51"/><path d="M227,268L403,387L410,265Z" fill="#e4e7d0" stroke="#e4e7d0" stroke-width="1.51"/><path d="M350,796L337,863L432,802Z" fill="#badda7" stroke="#badda7" stroke-width="1.51"/><path d="M264,678L279,782L332,707Z" fill="#d5ebc6" stroke="#d5ebc6" stroke-width="1.51"/><path d="M650,60L539,59L584,170Z" fill="#a5c696" stroke="#a5c696" stroke-width="1.51"/><path d="M279,782L337,863L350,796Z" fill="#b6dea3" stroke="#b6dea3" stroke-width="1.51"/><path d="M1042,80L935,82L968,187Z" fill="#bfdbb3" stroke="#bfdbb3" stroke-width="1.51"/><path d="M452,-40L407,127L431,130Z" fill="#b8dfa3" stroke="#b8dfa3" stroke-width="1.51"/><path d="M431,130L407,127L410,265Z" fill="#e1efcb" stroke="#e1efcb" stroke-width="1.51"/><path d="M685,993L806,1039L781,926Z" fill="#639b5b" stroke="#639b5b" stroke-width="1.51"/><path d="M450,925L555,1009L577,862Z" fill="#7eb56e" stroke="#7eb56e" stroke-width="1.51"/><path d="M448,997L555,1009L450,925Z" fill="#85bd74" stroke="#85bd74" stroke-width="1.51"/><path d="M238,392L195,473L287,528Z" fill="#a7bb9b" stroke="#a7bb9b" stroke-width="1.51"/><path d="M264,678L165,780L279,782Z" fill="#bde2ae" stroke="#bde2ae" stroke-width="1.51"/><path d="M674,1127L806,1039L685,993Z" fill="#5e9556" stroke="#5e9556" stroke-width="1.51"/><path d="M650,60L559,26L539,59Z" fill="#94c185" stroke="#94c185" stroke-width="1.51"/><path d="M539,59L452,-40L431,130Z" fill="#a7d595" stroke="#a7d595" stroke-width="1.51"/><path d="M682,-20L559,26L650,60Z" fill="#82b676" stroke="#82b676" stroke-width="1.51"/><path d="M778,-25L760,93L837,68Z" fill="#86b57c" stroke="#86b57c" stroke-width="1.51"/><path d="M269,168L336,156L229,105Z" fill="#cceeb3" stroke="#cceeb3" stroke-width="1.51"/><path d="M407,127L336,156L410,265Z" fill="#ebf5d2" stroke="#ebf5d2" stroke-width="1.51"/><path d="M238,392L122,378L195,473Z" fill="#a0bc93" stroke="#a0bc93" stroke-width="1.51"/><path d="M337,863L332,980L450,925Z" fill="#98d082" stroke="#98d082" stroke-width="1.51"/><path d="M279,782L307,877L337,863Z" fill="#a7d893" stroke="#a7d893" stroke-width="1.51"/><path d="M332,980L448,997L450,925Z" fill="#92c97d" stroke="#92c97d" stroke-width="1.51"/><path d="M807,1139L888,1097L806,1039Z" fill="#6fa666" stroke="#6fa666" stroke-width="1.51"/><path d="M978,1038L975,913L883,985Z" fill="#80b776" stroke="#80b776" stroke-width="1.51"/><path d="M1039,1047L1093,903L975,913Z" fill="#8ec584" stroke="#8ec584" stroke-width="1.51"/><path d="M975,913L1093,903L1010,807Z" fill="#97c78d" stroke="#97c78d" stroke-width="1.51"/><path d="M1064,807L1179,834L1089,689Z" fill="#c0ddb9" stroke="#c0ddb9" stroke-width="1.51"/><path d="M1251,729L1248,574L1132,675Z" fill="#cce0c7" stroke="#cce0c7" stroke-width="1.51"/><path d="M1132,675L1248,574L1129,629Z" fill="#cedccb" stroke="#cedccb" stroke-width="1.51"/><path d="M1167,423L1179,259L1103,306Z" fill="#c9d4bf" stroke="#c9d4bf" stroke-width="1.51"/><path d="M1260,309L1179,259L1167,423Z" fill="#bbceb0" stroke="#bbceb0" stroke-width="1.51"/><path d="M1042,173L1042,80L968,187Z" fill="#d0e4c4" stroke="#d0e4c4" stroke-width="1.51"/><path d="M935,82L856,5L837,68Z" fill="#96c28b" stroke="#96c28b" stroke-width="1.51"/><path d="M963,28L856,5L935,82Z" fill="#97c78d" stroke="#97c78d" stroke-width="1.51"/><path d="M336,156L227,268L410,265Z" fill="#f5fbdc" stroke="#f5fbdc" stroke-width="1.51"/><path d="M778,-25L682,-20L760,93Z" fill="#73a96b" stroke="#73a96b" stroke-width="1.51"/><path d="M856,5L778,-25L837,68Z" fill="#80b677" stroke="#80b677" stroke-width="1.51"/><path d="M1248,574L1264,480L1155,486Z" fill="#a4bb9f" stroke="#a4bb9f" stroke-width="1.51"/><path d="M1169,173L1042,80L1042,173Z" fill="#d8edcb" stroke="#d8edcb" stroke-width="1.51"/><path d="M1093,903L1179,834L1064,807Z" fill="#a2d198" stroke="#a2d198" stroke-width="1.51"/><path d="M1042,80L963,28L935,82Z" fill="#abd4a0" stroke="#abd4a0" stroke-width="1.51"/><path d="M856,5L830,-86L778,-25Z" fill="#79b371" stroke="#79b371" stroke-width="1.51"/><path d="M144,615L264,678L294,563Z" fill="#cce0c0" stroke="#cce0c0" stroke-width="1.51"/><path d="M279,782L169,920L307,877Z" fill="#90d07e" stroke="#90d07e" stroke-width="1.51"/><path d="M229,105L336,156L302,26Z" fill="#bce9a4" stroke="#bce9a4" stroke-width="1.51"/><path d="M336,156L269,168L227,268Z" fill="#e1f5c8" stroke="#e1f5c8" stroke-width="1.51"/><path d="M87,630L144,615L64,464Z" fill="#9fc995" stroke="#9fc995" stroke-width="1.51"/><path d="M195,473L144,615L287,528Z" fill="#b2caa6" stroke="#b2caa6" stroke-width="1.51"/><path d="M888,1097L978,1038L883,985Z" fill="#7cb272" stroke="#7cb272" stroke-width="1.51"/><path d="M1093,903L1208,916L1179,834Z" fill="#86c67b" stroke="#86c67b" stroke-width="1.51"/><path d="M1179,834L1251,729L1132,675Z" fill="#b9dbb1" stroke="#b9dbb1" stroke-width="1.51"/><path d="M1248,574L1369,558L1264,480Z" fill="#99b992" stroke="#99b992" stroke-width="1.51"/><path d="M1179,259L1169,173L1042,173Z" fill="#e3f0d4" stroke="#e3f0d4" stroke-width="1.51"/><path d="M1252,204L1169,173L1179,259Z" fill="#d4eac4" stroke="#d4eac4" stroke-width="1.51"/><path d="M248,1004L332,980L307,877Z" fill="#89cd76" stroke="#89cd76" stroke-width="1.51"/><path d="M307,877L332,980L337,863Z" fill="#91cf7c" stroke="#91cf7c" stroke-width="1.51"/><path d="M1287,364L1260,309L1167,423Z" fill="#a8c19e" stroke="#a8c19e" stroke-width="1.51"/><path d="M806,1039L888,1097L883,985Z" fill="#73aa6a" stroke="#73aa6a" stroke-width="1.51"/><path d="M674,1127L685,993L555,1009Z" fill="#6ba360" stroke="#6ba360" stroke-width="1.51"/><path d="M674,1127L555,1009L603,1147Z" fill="#70a764" stroke="#70a764" stroke-width="1.51"/><path d="M168,686L165,780L264,678Z" fill="#c2e5b3" stroke="#c2e5b3" stroke-width="1.51"/><path d="M53,745L165,780L168,686Z" fill="#a7db99" stroke="#a7db99" stroke-width="1.51"/><path d="M603,1147L555,1009L479,1143Z" fill="#7ab26c" stroke="#7ab26c" stroke-width="1.51"/><path d="M1264,480L1287,364L1167,423Z" fill="#98b192" stroke="#98b192" stroke-width="1.51"/><path d="M1365,428L1287,364L1264,480Z" fill="#88aa7f" stroke="#88aa7f" stroke-width="1.51"/><path d="M227,268L122,378L238,392Z" fill="#b5d0a4" stroke="#b5d0a4" stroke-width="1.51"/><path d="M269,168L200,204L227,268Z" fill="#dcf3c3" stroke="#dcf3c3" stroke-width="1.51"/><path d="M124,259L122,378L227,268Z" fill="#b8d9a5" stroke="#b8d9a5" stroke-width="1.51"/><path d="M559,26L452,-40L539,59Z" fill="#92c882" stroke="#92c882" stroke-width="1.51"/><path d="M269,168L229,105L200,204Z" fill="#c7ecaf" stroke="#c7ecaf" stroke-width="1.51"/><path d="M682,-20L603,-76L559,26Z" fill="#7bb570" stroke="#7bb570" stroke-width="1.51"/><path d="M656,-122L603,-76L682,-20Z" fill="#76b06c" stroke="#76b06c" stroke-width="1.51"/><path d="M656,-122L682,-20L787,-131Z" fill="#6ca664" stroke="#6ca664" stroke-width="1.51"/><path d="M978,1038L1039,1047L975,913Z" fill="#87bf7e" stroke="#87bf7e" stroke-width="1.51"/><path d="M1179,834L1261,808L1251,729Z" fill="#9bce91" stroke="#9bce91" stroke-width="1.51"/><path d="M1007,1131L1039,1047L978,1038Z" fill="#89c080" stroke="#89c080" stroke-width="1.51"/><path d="M888,1097L1007,1131L978,1038Z" fill="#82b978" stroke="#82b978" stroke-width="1.51"/><path d="M674,1127L807,1139L806,1039Z" fill="#649b5c" stroke="#649b5c" stroke-width="1.51"/><path d="M1410,689L1369,558L1248,574Z" fill="#9dc595" stroke="#9dc595" stroke-width="1.51"/><path d="M1208,916L1261,808L1179,834Z" fill="#84c579" stroke="#84c579" stroke-width="1.51"/><path d="M509,-104L452,-40L559,26Z" fill="#8ec87e" stroke="#8ec87e" stroke-width="1.51"/><path d="M977,-83L830,-86L856,5Z" fill="#83bd7b" stroke="#83bd7b" stroke-width="1.51"/><path d="M977,-83L856,5L963,28Z" fill="#8ac481" stroke="#8ac481" stroke-width="1.51"/><path d="M977,-83L963,28L1105,-16Z" fill="#97d18e" stroke="#97d18e" stroke-width="1.51"/><path d="M674,1127L603,1147L807,1139Z" fill="#629959" stroke="#629959" stroke-width="1.51"/><path d="M479,1143L555,1009L448,997Z" fill="#83bb72" stroke="#83bb72" stroke-width="1.51"/><path d="M144,615L87,630L168,686Z" fill="#badeaf" stroke="#badeaf" stroke-width="1.51"/><path d="M64,464L144,615L195,473Z" fill="#9bbf90" stroke="#9bbf90" stroke-width="1.51"/><path d="M1177,1045L1208,916L1093,903Z" fill="#7fc374" stroke="#7fc374" stroke-width="1.51"/><path d="M1169,173L1167,60L1042,80Z" fill="#bee4b1" stroke="#bee4b1" stroke-width="1.51"/><path d="M1260,309L1252,204L1179,259Z" fill="#c8e0b9" stroke="#c8e0b9" stroke-width="1.51"/><path d="M1287,137L1252,204L1380,208Z" fill="#aedb9a" stroke="#aedb9a" stroke-width="1.51"/><path d="M200,204L124,259L227,268Z" fill="#cfebb8" stroke="#cfebb8" stroke-width="1.51"/><path d="M302,26L336,156L407,127Z" fill="#cdeeb5" stroke="#cdeeb5" stroke-width="1.51"/><path d="M97,216L124,259L200,204Z" fill="#c9edb2" stroke="#c9edb2" stroke-width="1.51"/><path d="M122,378L64,464L195,473Z" fill="#8cb181" stroke="#8cb181" stroke-width="1.51"/><path d="M347,-25L302,26L407,127Z" fill="#b6e79f" stroke="#b6e79f" stroke-width="1.51"/><path d="M53,411L64,464L122,378Z" fill="#86b37b" stroke="#86b37b" stroke-width="1.51"/><path d="M603,-76L509,-104L559,26Z" fill="#85bf77" stroke="#85bf77" stroke-width="1.51"/><path d="M787,-131L682,-20L778,-25Z" fill="#6ea867" stroke="#6ea867" stroke-width="1.51"/><path d="M340,1074L479,1143L448,997Z" fill="#8fc77c" stroke="#8fc77c" stroke-width="1.51"/><path d="M1287,137L1167,60L1169,173Z" fill="#b0dda1" stroke="#b0dda1" stroke-width="1.51"/><path d="M332,980L340,1074L448,997Z" fill="#98d082" stroke="#98d082" stroke-width="1.51"/><path d="M248,1004L340,1074L332,980Z" fill="#8cce78" stroke="#8cce78" stroke-width="1.51"/><path d="M452,-40L347,-25L407,127Z" fill="#a8dd94" stroke="#a8dd94" stroke-width="1.51"/><path d="M168,62L200,204L229,105Z" fill="#b1e59a" stroke="#b1e59a" stroke-width="1.51"/><path d="M352,-85L347,-25L452,-40Z" fill="#a3dd8e" stroke="#a3dd8e" stroke-width="1.51"/><path d="M169,920L279,782L165,780Z" fill="#92d181" stroke="#92d181" stroke-width="1.51"/><path d="M169,920L248,1004L307,877Z" fill="#7bc869" stroke="#7bc869" stroke-width="1.51"/><path d="M1410,689L1248,574L1251,729Z" fill="#b6d7ae" stroke="#b6d7ae" stroke-width="1.51"/><path d="M1287,364L1375,307L1260,309Z" fill="#a1c494" stroke="#a1c494" stroke-width="1.51"/><path d="M656,-122L509,-104L603,-76Z" fill="#7fba73" stroke="#7fba73" stroke-width="1.51"/><path d="M830,-86L787,-131L778,-25Z" fill="#75af6e" stroke="#75af6e" stroke-width="1.51"/><path d="M977,-83L787,-131L830,-86Z" fill="#7fba77" stroke="#7fba77" stroke-width="1.51"/><path d="M1397,478L1365,428L1264,480Z" fill="#7aa273" stroke="#7aa273" stroke-width="1.51"/><path d="M3,742L53,745L87,630Z" fill="#a0d994" stroke="#a0d994" stroke-width="1.51"/><path d="M29,294L53,411L122,378Z" fill="#93c184" stroke="#93c184" stroke-width="1.51"/><path d="M108,933L169,920L165,780Z" fill="#6bc35d" stroke="#6bc35d" stroke-width="1.51"/><path d="M1105,-16L963,28L1042,80Z" fill="#a7d89c" stroke="#a7d89c" stroke-width="1.51"/><path d="M1039,1047L1177,1045L1093,903Z" fill="#8ec984" stroke="#8ec984" stroke-width="1.51"/><path d="M807,1139L1007,1131L888,1097Z" fill="#79b070" stroke="#79b070" stroke-width="1.51"/><path d="M1167,60L1105,-16L1042,80Z" fill="#abdda0" stroke="#abdda0" stroke-width="1.51"/><path d="M124,259L29,294L122,378Z" fill="#a6d194" stroke="#a6d194" stroke-width="1.51"/><path d="M168,62L97,216L200,204Z" fill="#b4e69d" stroke="#b4e69d" stroke-width="1.51"/><path d="M168,62L229,105L171,35Z" fill="#97dc83" stroke="#97dc83" stroke-width="1.51"/><path d="M87,630L53,745L168,686Z" fill="#b6e1aa" stroke="#b6e1aa" stroke-width="1.51"/><path d="M-11,479L87,630L64,464Z" fill="#88ba7e" stroke="#88ba7e" stroke-width="1.51"/><path d="M1380,208L1252,204L1260,309Z" fill="#bcdda9" stroke="#bcdda9" stroke-width="1.51"/><path d="M1369,558L1397,478L1264,480Z" fill="#84ac7c" stroke="#84ac7c" stroke-width="1.51"/><path d="M1098,1109L1177,1045L1039,1047Z" fill="#8ec983" stroke="#8ec983" stroke-width="1.51"/><path d="M1360,867L1354,795L1261,808Z" fill="#72be68" stroke="#72be68" stroke-width="1.51"/><path d="M1261,808L1354,795L1251,729Z" fill="#91ca86" stroke="#91ca86" stroke-width="1.51"/><path d="M1293,935L1261,808L1208,916Z" fill="#69bb5f" stroke="#69bb5f" stroke-width="1.51"/><path d="M1369,558L1450,476L1397,478Z" fill="#74a66b" stroke="#74a66b" stroke-width="1.51"/><path d="M1252,204L1287,137L1169,173Z" fill="#bbe1aa" stroke="#bbe1aa" stroke-width="1.51"/><path d="M1167,60L1154,-11L1105,-16Z" fill="#95d58a" stroke="#95d58a" stroke-width="1.51"/><path d="M1375,307L1287,364L1365,428Z" fill="#8db681" stroke="#8db681" stroke-width="1.51"/><path d="M1007,1131L1098,1109L1039,1047Z" fill="#90c786" stroke="#90c786" stroke-width="1.51"/><path d="M1299,-48L1154,-11L1167,60Z" fill="#7ecd74" stroke="#7ecd74" stroke-width="1.51"/><path d="M1105,-16L1115,-73L977,-83Z" fill="#9fd895" stroke="#9fd895" stroke-width="1.51"/><path d="M1515,433L1375,307L1365,428Z" fill="#73a768" stroke="#73a768" stroke-width="1.51"/><path d="M347,-25L306,-139L302,26Z" fill="#9cde88" stroke="#9cde88" stroke-width="1.51"/><path d="M509,-104L352,-85L452,-40Z" fill="#9ad487" stroke="#9ad487" stroke-width="1.51"/><path d="M306,-139L352,-85L509,-104Z" fill="#a2dd8d" stroke="#a2dd8d" stroke-width="1.51"/><path d="M1267,997L1293,935L1208,916Z" fill="#62b858" stroke="#62b858" stroke-width="1.51"/><path d="M171,35L229,105L302,26Z" fill="#9dde89" stroke="#9dde89" stroke-width="1.51"/><path d="M-58,157L29,294L97,216Z" fill="#ace396" stroke="#ace396" stroke-width="1.51"/><path d="M97,216L29,294L124,259Z" fill="#b3df9e" stroke="#b3df9e" stroke-width="1.51"/><path d="M-9,414L-11,479L64,464Z" fill="#6ea666" stroke="#6ea666" stroke-width="1.51"/><path d="M1466,670L1410,689L1451,828Z" fill="#7cc272" stroke="#7cc272" stroke-width="1.51"/><path d="M1354,795L1410,689L1251,729Z" fill="#95cb8a" stroke="#95cb8a" stroke-width="1.51"/><path d="M-9,414L64,464L53,411Z" fill="#78ac6f" stroke="#78ac6f" stroke-width="1.51"/><path d="M169,920L158,1039L248,1004Z" fill="#6dc35d" stroke="#6dc35d" stroke-width="1.51"/><path d="M53,745L36,796L165,780Z" fill="#8bd17e" stroke="#8bd17e" stroke-width="1.51"/><path d="M3,742L36,796L53,745Z" fill="#83cf78" stroke="#83cf78" stroke-width="1.51"/><path d="M36,796L108,933L165,780Z" fill="#73c766" stroke="#73c766" stroke-width="1.51"/><path d="M248,1004L308,1136L340,1074Z" fill="#8acd76" stroke="#8acd76" stroke-width="1.51"/><path d="M29,294L-9,414L53,411Z" fill="#84bb78" stroke="#84bb78" stroke-width="1.51"/><path d="M1154,-11L1115,-73L1105,-16Z" fill="#95d68b" stroke="#95d68b" stroke-width="1.51"/><path d="M977,-83L1141,-143L787,-131Z" fill="#90c987" stroke="#90c987" stroke-width="1.51"/><path d="M1141,-143L1115,-73L1256,-98Z" fill="#88d07e" stroke="#88d07e" stroke-width="1.51"/><path d="M157,1140L308,1136L248,1004Z" fill="#7ac768" stroke="#7ac768" stroke-width="1.51"/><path d="M340,1074L308,1136L479,1143Z" fill="#97cf82" stroke="#97cf82" stroke-width="1.51"/><path d="M1177,1045L1267,997L1208,916Z" fill="#6ebd64" stroke="#6ebd64" stroke-width="1.51"/><path d="M1098,1109L1131,1121L1177,1045Z" fill="#85c67b" stroke="#85c67b" stroke-width="1.51"/><path d="M1007,1131L1131,1121L1098,1109Z" fill="#94cb8a" stroke="#94cb8a" stroke-width="1.51"/><path d="M306,-139L171,35L302,26Z" fill="#8dd97b" stroke="#8dd97b" stroke-width="1.51"/><path d="M168,62L47,93L97,216Z" fill="#98dd84" stroke="#98dd84" stroke-width="1.51"/><path d="M1293,935L1360,867L1261,808Z" fill="#62b859" stroke="#62b859" stroke-width="1.51"/><path d="M1281,1093L1267,997L1177,1045Z" fill="#66b95d" stroke="#66b95d" stroke-width="1.51"/><path d="M1401,1001L1360,867L1293,935Z" fill="#40ad3d" stroke="#40ad3d" stroke-width="1.51"/><path d="M-56,601L3,742L87,630Z" fill="#a0d796" stroke="#a0d796" stroke-width="1.51"/><path d="M36,796L-15,975L108,933Z" fill="#3ab639" stroke="#3ab639" stroke-width="1.51"/><path d="M1397,478L1450,476L1365,428Z" fill="#6a9b62" stroke="#6a9b62" stroke-width="1.51"/><path d="M1492,636L1450,476L1369,558Z" fill="#78af6f" stroke="#78af6f" stroke-width="1.51"/><path d="M1287,137L1299,-48L1167,60Z" fill="#86cf79" stroke="#86cf79" stroke-width="1.51"/><path d="M1375,307L1380,208L1260,309Z" fill="#a8cf96" stroke="#a8cf96" stroke-width="1.51"/><path d="M1498,238L1380,208L1375,307Z" fill="#99cd85" stroke="#99cd85" stroke-width="1.51"/><path d="M1380,208L1336,124L1287,137Z" fill="#9bd489" stroke="#9bd489" stroke-width="1.51"/><path d="M108,933L158,1039L169,920Z" fill="#5fbf52" stroke="#5fbf52" stroke-width="1.51"/><path d="M157,1140L158,1039L83,1137Z" fill="#5bbe4f" stroke="#5bbe4f" stroke-width="1.51"/><path d="M-102,580L-56,601L-11,479Z" fill="#83bd7b" stroke="#83bd7b" stroke-width="1.51"/><path d="M-11,479L-56,601L87,630Z" fill="#89c180" stroke="#89c180" stroke-width="1.51"/><path d="M1410,689L1466,670L1369,558Z" fill="#92c588" stroke="#92c588" stroke-width="1.51"/><path d="M1451,828L1410,689L1354,795Z" fill="#74be69" stroke="#74be69" stroke-width="1.51"/><path d="M-150,824L-18,804L3,742Z" fill="#6cc663" stroke="#6cc663" stroke-width="1.51"/><path d="M3,742L-18,804L36,796Z" fill="#72c869" stroke="#72c869" stroke-width="1.51"/><path d="M352,-85L306,-139L347,-25Z" fill="#a1df8c" stroke="#a1df8c" stroke-width="1.51"/><path d="M656,-122L306,-139L509,-104Z" fill="#91cb80" stroke="#91cb80" stroke-width="1.51"/><path d="M787,-131L306,-139L656,-122Z" fill="#80bb74" stroke="#80bb74" stroke-width="1.51"/><path d="M1466,670L1492,636L1369,558Z" fill="#87be7d" stroke="#87be7d" stroke-width="1.51"/><path d="M1450,476L1515,433L1365,428Z" fill="#5f9657" stroke="#5f9657" stroke-width="1.51"/><path d="M1535,615L1492,636L1590,723Z" fill="#90c786" stroke="#90c786" stroke-width="1.51"/><path d="M171,35L47,93L168,62Z" fill="#85d674" stroke="#85d674" stroke-width="1.51"/><path d="M29,294L-70,336L-9,414Z" fill="#85bf77" stroke="#85bf77" stroke-width="1.51"/><path d="M-9,414L-117,418L-11,479Z" fill="#6da765" stroke="#6da765" stroke-width="1.51"/><path d="M39,-15L47,93L171,35Z" fill="#6ccf60" stroke="#6ccf60" stroke-width="1.51"/><path d="M1115,-73L1141,-143L977,-83Z" fill="#a1da97" stroke="#a1da97" stroke-width="1.51"/><path d="M787,-131L1141,-143L306,-139Z" fill="#6da766" stroke="#6da766" stroke-width="1.51"/><path d="M1256,-98L1115,-73L1154,-11Z" fill="#87d07d" stroke="#87d07d" stroke-width="1.51"/><path d="M1360,867L1451,828L1354,795Z" fill="#5bb653" stroke="#5bb653" stroke-width="1.51"/><path d="M1456,918L1451,828L1360,867Z" fill="#35ab35" stroke="#35ab35" stroke-width="1.51"/><path d="M-58,157L-70,336L29,294Z" fill="#9dd78a" stroke="#9dd78a" stroke-width="1.51"/><path d="M1267,997L1401,1001L1293,935Z" fill="#4cb146" stroke="#4cb146" stroke-width="1.51"/><path d="M1131,1121L1281,1093L1177,1045Z" fill="#74bf6a" stroke="#74bf6a" stroke-width="1.51"/><path d="M-56,601L-179,687L3,742Z" fill="#a1da97" stroke="#a1da97" stroke-width="1.51"/><path d="M-172,501L-102,580L-11,479Z" fill="#7ab472" stroke="#7ab472" stroke-width="1.51"/><path d="M1534,477L1515,433L1450,476Z" fill="#619859" stroke="#619859" stroke-width="1.51"/><path d="M1418,-39L1299,-48L1336,124Z" fill="#55be4e" stroke="#55be4e" stroke-width="1.51"/><path d="M47,93L1,113L97,216Z" fill="#90da7e" stroke="#90da7e" stroke-width="1.51"/><path d="M39,-15L1,113L47,93Z" fill="#67cd5c" stroke="#67cd5c" stroke-width="1.51"/><path d="M308,1136L157,1140L479,1143Z" fill="#8ece7a" stroke="#8ece7a" stroke-width="1.51"/><path d="M479,1143L157,1140L603,1147Z" fill="#91c97d" stroke="#91c97d" stroke-width="1.51"/><path d="M158,1039L157,1140L248,1004Z" fill="#6cc35c" stroke="#6cc35c" stroke-width="1.51"/><path d="M33,1018L158,1039L108,933Z" fill="#50bb47" stroke="#50bb47" stroke-width="1.51"/><path d="M1336,124L1299,-48L1287,137Z" fill="#7fcb72" stroke="#7fcb72" stroke-width="1.51"/><path d="M1477,114L1336,124L1380,208Z" fill="#86cc74" stroke="#86cc74" stroke-width="1.51"/><path d="M1535,615L1450,476L1492,636Z" fill="#7cb373" stroke="#7cb373" stroke-width="1.51"/><path d="M1535,615L1534,477L1450,476Z" fill="#6fa766" stroke="#6fa766" stroke-width="1.51"/><path d="M1590,723L1492,636L1466,670Z" fill="#94cb8a" stroke="#94cb8a" stroke-width="1.51"/><path d="M-70,336L-117,418L-9,414Z" fill="#7ab46f" stroke="#7ab46f" stroke-width="1.51"/><path d="M-134,307L-117,418L-70,336Z" fill="#84be76" stroke="#84be76" stroke-width="1.51"/><path d="M1299,-48L1256,-98L1154,-11Z" fill="#74ca6b" stroke="#74ca6b" stroke-width="1.51"/><path d="M-15,975L33,1018L108,933Z" fill="#39b639" stroke="#39b639" stroke-width="1.51"/><path d="M-15,975L36,796L-18,804Z" fill="#46ba43" stroke="#46ba43" stroke-width="1.51"/><path d="M1451,828L1576,777L1466,670Z" fill="#6fbd65" stroke="#6fbd65" stroke-width="1.51"/><path d="M1348,1084L1401,1001L1267,997Z" fill="#45af40" stroke="#45af40" stroke-width="1.51"/><path d="M1510,269L1375,307L1515,433Z" fill="#7cb46d" stroke="#7cb46d" stroke-width="1.51"/><path d="M1510,269L1498,238L1375,307Z" fill="#8dc57a" stroke="#8dc57a" stroke-width="1.51"/><path d="M1620,382L1510,269L1515,433Z" fill="#75ad68" stroke="#75ad68" stroke-width="1.51"/><path d="M1401,1001L1456,918L1360,867Z" fill="#25a72a" stroke="#25a72a" stroke-width="1.51"/><path d="M1514,1021L1533,877L1456,918Z" fill="#00a31d" stroke="#00a31d" stroke-width="1.51"/><path d="M1281,1093L1348,1084L1267,997Z" fill="#54b34c" stroke="#54b34c" stroke-width="1.51"/><path d="M1444,1133L1348,1084L1281,1093Z" fill="#3dad3a" stroke="#3dad3a" stroke-width="1.51"/><path d="M33,1018L83,1137L158,1039Z" fill="#4dba45" stroke="#4dba45" stroke-width="1.51"/><path d="M-75,920L-15,975L-18,804Z" fill="#22b22d" stroke="#22b22d" stroke-width="1.51"/><path d="M1,113L-58,157L97,216Z" fill="#90da7d" stroke="#90da7d" stroke-width="1.51"/><path d="M-133,123L-58,157L-109,34Z" fill="#73d065" stroke="#73d065" stroke-width="1.51"/><path d="M103,-134L39,-15L171,35Z" fill="#5fcb56" stroke="#5fcb56" stroke-width="1.51"/><path d="M-117,418L-172,501L-11,479Z" fill="#6ea766" stroke="#6ea766" stroke-width="1.51"/><path d="M-58,157L-134,307L-70,336Z" fill="#9cd689" stroke="#9cd689" stroke-width="1.51"/><path d="M-70,1068L83,1137L33,1018Z" fill="#2bb331" stroke="#2bb331" stroke-width="1.51"/><path d="M1498,238L1477,114L1380,208Z" fill="#8acd76" stroke="#8acd76" stroke-width="1.51"/><path d="M1299,-48L1393,-94L1256,-98Z" fill="#5bc054" stroke="#5bc054" stroke-width="1.51"/><path d="M1534,117L1477,114L1498,238Z" fill="#7dc86b" stroke="#7dc86b" stroke-width="1.51"/><path d="M-15,975L-70,1068L33,1018Z" fill="#22b22d" stroke="#22b22d" stroke-width="1.51"/><path d="M-150,824L-75,920L-18,804Z" fill="#4bbc47" stroke="#4bbc47" stroke-width="1.51"/><path d="M-179,687L-56,601L-102,580Z" fill="#94ce8b" stroke="#94ce8b" stroke-width="1.51"/><path d="M-134,307L-172,501L-117,418Z" fill="#75af6b" stroke="#75af6b" stroke-width="1.51"/><path d="M306,-139L129,-140L171,35Z" fill="#7dd36d" stroke="#7dd36d" stroke-width="1.51"/><path d="M-139,-145L129,-140L306,-139Z" fill="#5dca54" stroke="#5dca54" stroke-width="1.51"/><path d="M1514,1021L1456,918L1401,1001Z" fill="#00a31d" stroke="#00a31d" stroke-width="1.51"/><path d="M1456,918L1533,877L1451,828Z" fill="#29a82d" stroke="#29a82d" stroke-width="1.51"/><path d="M129,-140L103,-134L171,35Z" fill="#68cd5d" stroke="#68cd5d" stroke-width="1.51"/><path d="M-133,123L-123,175L-58,157Z" fill="#88d777" stroke="#88d777" stroke-width="1.51"/><path d="M-172,501L-179,687L-102,580Z" fill="#8cc683" stroke="#8cc683" stroke-width="1.51"/><path d="M1675,430L1620,382L1534,477Z" fill="#639a5a" stroke="#639a5a" stroke-width="1.51"/><path d="M1606,218L1498,238L1510,269Z" fill="#95cd81" stroke="#95cd81" stroke-width="1.51"/><path d="M1533,877L1576,777L1451,828Z" fill="#4bb045" stroke="#4bb045" stroke-width="1.51"/><path d="M-58,157L-123,175L-134,307Z" fill="#a2e08d" stroke="#a2e08d" stroke-width="1.51"/><path d="M-134,307L-133,123L-172,501Z" fill="#8fca7f" stroke="#8fca7f" stroke-width="1.51"/><path d="M-58,157L1,113L-109,34Z" fill="#71d063" stroke="#71d063" stroke-width="1.51"/><path d="M1576,777L1590,723L1466,670Z" fill="#7fc374" stroke="#7fc374" stroke-width="1.51"/><path d="M-75,920L-123,936L-15,975Z" fill="#22b22d" stroke="#22b22d" stroke-width="1.51"/><path d="M-179,687L-150,824L3,742Z" fill="#7fcd75" stroke="#7fcd75" stroke-width="1.51"/><path d="M1477,114L1418,-39L1336,124Z" fill="#5dbf52" stroke="#5dbf52" stroke-width="1.51"/><path d="M1256,-98L1393,-94L1141,-143Z" fill="#6cc663" stroke="#6cc663" stroke-width="1.51"/><path d="M1477,114L1467,-38L1418,-39Z" fill="#2eb432" stroke="#2eb432" stroke-width="1.51"/><path d="M1606,218L1534,117L1498,238Z" fill="#8ccd78" stroke="#8ccd78" stroke-width="1.51"/><path d="M1620,382L1515,433L1534,477Z" fill="#639a5a" stroke="#639a5a" stroke-width="1.51"/><path d="M1644,521L1534,477L1535,615Z" fill="#73aa6a" stroke="#73aa6a" stroke-width="1.51"/><path d="M-150,824L-123,936L-75,920Z" fill="#29b331" stroke="#29b331" stroke-width="1.51"/><path d="M1467,-38L1393,-94L1418,-39Z" fill="#2bb332" stroke="#2bb332" stroke-width="1.51"/><path d="M1418,-39L1393,-94L1299,-48Z" fill="#46ba44" stroke="#46ba44" stroke-width="1.51"/><path d="M1620,382L1602,261L1510,269Z" fill="#84bd73" stroke="#84bd73" stroke-width="1.51"/><path d="M-123,175L-133,123L-134,307Z" fill="#9dde89" stroke="#9dde89" stroke-width="1.51"/><path d="M-109,34L1,113L39,-15Z" fill="#53c84d" stroke="#53c84d" stroke-width="1.51"/><path d="M1671,171L1606,218L1716,259Z" fill="#96d181" stroke="#96d181" stroke-width="1.51"/><path d="M1660,597L1644,521L1535,615Z" fill="#7cb473" stroke="#7cb473" stroke-width="1.51"/><path d="M1660,597L1535,615L1652,685Z" fill="#8ac180" stroke="#8ac180" stroke-width="1.51"/><path d="M1696,786L1590,723L1576,777Z" fill="#6dbc63" stroke="#6dbc63" stroke-width="1.51"/><path d="M1652,685L1535,615L1590,723Z" fill="#94cb8a" stroke="#94cb8a" stroke-width="1.51"/><path d="M1444,1133L1514,1021L1401,1001Z" fill="#00a31d" stroke="#00a31d" stroke-width="1.51"/><path d="M-123,936L-70,1068L-15,975Z" fill="#22b22d" stroke="#22b22d" stroke-width="1.51"/><path d="M1534,117L1467,-38L1477,114Z" fill="#51bb48" stroke="#51bb48" stroke-width="1.51"/><path d="M1499,-85L1467,-38L1546,-43Z" fill="#22b22d" stroke="#22b22d" stroke-width="1.51"/><path d="M1716,259L1602,261L1620,382Z" fill="#85bd74" stroke="#85bd74" stroke-width="1.51"/><path d="M1602,261L1606,218L1510,269Z" fill="#94cb7f" stroke="#94cb7f" stroke-width="1.51"/><path d="M1348,1084L1444,1133L1401,1001Z" fill="#29a82d" stroke="#29a82d" stroke-width="1.51"/><path d="M1131,1121L1444,1133L1281,1093Z" fill="#58b550" stroke="#58b550" stroke-width="1.51"/><path d="M1007,1131L1444,1133L1131,1121Z" fill="#74bf6a" stroke="#74bf6a" stroke-width="1.51"/><path d="M807,1139L1444,1133L1007,1131Z" fill="#93cb88" stroke="#93cb88" stroke-width="1.51"/><path d="M603,1147L1444,1133L807,1139Z" fill="#81b877" stroke="#81b877" stroke-width="1.51"/><path d="M1652,685L1590,723L1696,786Z" fill="#7bc271" stroke="#7bc271" stroke-width="1.51"/><path d="M1644,521L1675,430L1534,477Z" fill="#649b5c" stroke="#649b5c" stroke-width="1.51"/><path d="M-64,-44L-109,34L39,-15Z" fill="#35c13b" stroke="#35c13b" stroke-width="1.51"/><path d="M1696,786L1576,777L1701,890Z" fill="#51b249" stroke="#51b249" stroke-width="1.51"/><path d="M103,-134L-39,-72L39,-15Z" fill="#45c444" stroke="#45c444" stroke-width="1.51"/><path d="M-39,-72L-64,-44L39,-15Z" fill="#35c13b" stroke="#35c13b" stroke-width="1.51"/><path d="M1660,597L1675,430L1644,521Z" fill="#6ea565" stroke="#6ea565" stroke-width="1.51"/><path d="M-164,1024L-100,1113L-70,1068Z" fill="#22b22d" stroke="#22b22d" stroke-width="1.51"/><path d="M-70,1068L-100,1113L83,1137Z" fill="#22b22d" stroke="#22b22d" stroke-width="1.51"/><path d="M-164,1024L-70,1068L-123,936Z" fill="#22b22d" stroke="#22b22d" stroke-width="1.51"/><path d="M-164,1024L-123,936L-150,824Z" fill="#22b22d" stroke="#22b22d" stroke-width="1.51"/><path d="M1514,1021L1579,1018L1533,877Z" fill="#00a31d" stroke="#00a31d" stroke-width="1.51"/><path d="M1546,1105L1579,1018L1514,1021Z" fill="#00a31d" stroke="#00a31d" stroke-width="1.51"/><path d="M1546,-43L1467,-38L1534,117Z" fill="#2eb432" stroke="#2eb432" stroke-width="1.51"/><path d="M1467,-38L1499,-85L1393,-94Z" fill="#22b22d" stroke="#22b22d" stroke-width="1.51"/><path d="M1393,-94L1709,-147L1141,-143Z" fill="#32b535" stroke="#32b535" stroke-width="1.51"/><path d="M-179,687L-164,1024L-150,824Z" fill="#4ebc49" stroke="#4ebc49" stroke-width="1.51"/><path d="M1698,122L1546,-43L1534,117Z" fill="#52bb49" stroke="#52bb49" stroke-width="1.51"/><path d="M1671,171L1534,117L1606,218Z" fill="#83cb6f" stroke="#83cb6f" stroke-width="1.51"/><path d="M1444,1133L1546,1105L1514,1021Z" fill="#00a31d" stroke="#00a31d" stroke-width="1.51"/><path d="M1660,597L1696,786L1675,430Z" fill="#83ba79" stroke="#83ba79" stroke-width="1.51"/><path d="M1652,685L1696,786L1660,597Z" fill="#8ec984" stroke="#8ec984" stroke-width="1.51"/><path d="M1701,890L1576,777L1533,877Z" fill="#3ead3b" stroke="#3ead3b" stroke-width="1.51"/><path d="M1701,890L1533,877L1579,1018Z" fill="#00a31d" stroke="#00a31d" stroke-width="1.51"/><path d="M1716,259L1620,382L1675,430Z" fill="#76ae68" stroke="#76ae68" stroke-width="1.51"/><path d="M1716,259L1606,218L1602,261Z" fill="#94cc80" stroke="#94cc80" stroke-width="1.51"/><path d="M1696,786L1716,259L1675,430Z" fill="#689f5f" stroke="#689f5f" stroke-width="1.51"/><path d="M1719,965L1701,890L1579,1018Z" fill="#00a31d" stroke="#00a31d" stroke-width="1.51"/><path d="M1696,786L1719,965L1716,259Z" fill="#93ca89" stroke="#93ca89" stroke-width="1.51"/><path d="M1671,171L1698,122L1534,117Z" fill="#75c664" stroke="#75c664" stroke-width="1.51"/><path d="M1716,259L1698,122L1671,171Z" fill="#89cd75" stroke="#89cd75" stroke-width="1.51"/><path d="M1697,-47L1582,-108L1546,-43Z" fill="#22b22d" stroke="#22b22d" stroke-width="1.51"/><path d="M1546,-43L1582,-108L1499,-85Z" fill="#22b22d" stroke="#22b22d" stroke-width="1.51"/><path d="M1499,-85L1582,-108L1393,-94Z" fill="#22b22d" stroke="#22b22d" stroke-width="1.51"/><path d="M-39,-72L-139,-145L-64,-44Z" fill="#35c13b" stroke="#35c13b" stroke-width="1.51"/><path d="M-64,-44L-139,-145L-109,34Z" fill="#35c13b" stroke="#35c13b" stroke-width="1.51"/><path d="M-109,34L-139,-145L-133,123Z" fill="#38c23d" stroke="#38c23d" stroke-width="1.51"/><path d="M-133,123L-139,-145L-172,501Z" fill="#8cd87a" stroke="#8cd87a" stroke-width="1.51"/><path d="M103,-134L-139,-145L-39,-72Z" fill="#35c13b" stroke="#35c13b" stroke-width="1.51"/><path d="M129,-140L-139,-145L103,-134Z" fill="#44c443" stroke="#44c443" stroke-width="1.51"/><path d="M1141,-143L-139,-145L306,-139Z" fill="#9ad488" stroke="#9ad488" stroke-width="1.51"/><path d="M1710,1113L1719,965L1579,1018Z" fill="#00a31d" stroke="#00a31d" stroke-width="1.51"/><path d="M1701,890L1719,965L1696,786Z" fill="#22a729" stroke="#22a729" stroke-width="1.51"/><path d="M1698,122L1697,-47L1546,-43Z" fill="#2cb332" stroke="#2cb332" stroke-width="1.51"/><path d="M1709,-147L1697,-47L1698,122Z" fill="#22b22d" stroke="#22b22d" stroke-width="1.51"/><path d="M1546,1105L1710,1113L1579,1018Z" fill="#00a31d" stroke="#00a31d" stroke-width="1.51"/><path d="M1444,1133L1710,1113L1546,1105Z" fill="#00a31d" stroke="#00a31d" stroke-width="1.51"/><path d="M1697,-47L1709,-147L1582,-108Z" fill="#22b22d" stroke="#22b22d" stroke-width="1.51"/><path d="M1582,-108L1709,-147L1393,-94Z" fill="#22b22d" stroke="#22b22d" stroke-width="1.51"/><path d="M1141,-143L1709,-147L-139,-145Z" fill="#86c07d" stroke="#86c07d" stroke-width="1.51"/><path d="M1716,259L1709,-147L1698,122Z" fill="#58be4d" stroke="#58be4d" stroke-width="1.51"/></svg>